<svg id="Layer_1" data-name="Layer 1" xmlns="http://www.w3.org/2000/svg" viewBox="0 0 746.31 830.92"><defs><style>.cls-1{font-size:76.13px;letter-spacing:-0.06em;}.cls-1,.cls-16,.cls-39,.cls-8{fill:#003059;}.cls-1,.cls-10,.cls-2,.cls-38,.cls-39,.cls-4,.cls-40,.cls-41,.cls-42,.cls-6,.cls-8{font-family:OpenSans-ExtraBold, Open Sans;font-weight:700;}.cls-10,.cls-2,.cls-4,.cls-6,.cls-8{font-size:78.61px;}.cls-12,.cls-2,.cls-38{fill:#1d9de0;}.cls-2,.cls-4{letter-spacing:-0.02em;}.cls-11,.cls-3,.cls-33,.cls-34,.cls-35,.cls-36,.cls-37,.cls-44,.cls-5,.cls-7,.cls-9{fill:none;stroke-miterlimit:10;}.cls-3,.cls-33{stroke:#1d9de0;}.cls-11,.cls-3,.cls-33,.cls-34,.cls-35,.cls-36,.cls-37,.cls-5,.cls-7,.cls-9{stroke-linecap:round;}.cls-11,.cls-3,.cls-5,.cls-7,.cls-9{stroke-width:8.37px;}.cls-13,.cls-4,.cls-40{fill:#5ac7da;}.cls-34,.cls-5{stroke:#5ac7da;}.cls-15,.cls-42,.cls-6{fill:#f5a623;}.cls-10,.cls-6,.cls-8{letter-spacing:-0.02em;}.cls-36,.cls-7{stroke:#f5a623;}.cls-37,.cls-9{stroke:#003059;}.cls-10,.cls-14,.cls-41{fill:#96e65c;}.cls-11,.cls-35{stroke:#96e65c;}.cls-17,.cls-22,.cls-30{font-size:20.42px;font-family:Roboto-Medium, Roboto;}.cls-17,.cls-22,.cls-30,.cls-43{fill:#fff;}.cls-17{letter-spacing:-0.03em;}.cls-18{letter-spacing:-0.04em;}.cls-19{letter-spacing:-0.01em;}.cls-20,.cls-30{letter-spacing:-0.03em;}.cls-21{letter-spacing:-0.04em;}.cls-22{letter-spacing:-0.03em;}.cls-23{letter-spacing:-0.04em;}.cls-24{letter-spacing:-0.03em;}.cls-25{letter-spacing:-0.05em;}.cls-26{letter-spacing:-0.05em;}.cls-27{letter-spacing:-0.04em;}.cls-28{letter-spacing:-0.04em;}.cls-29{letter-spacing:-0.04em;}.cls-31{letter-spacing:-0.04em;}.cls-32{letter-spacing:-0.03em;}.cls-33,.cls-34,.cls-35,.cls-36,.cls-37{stroke-width:8.17px;}.cls-38,.cls-39,.cls-40,.cls-41,.cls-42{font-size:24.66px;letter-spacing:-0.06em;}.cls-43{fill-rule:evenodd;}.cls-44{stroke:#fff;stroke-width:1.71px;}</style></defs><title>IC-Graphic-of-Five-Stages-Toward-Data-Driven-Culture</title><text class="cls-1" transform="translate(35.08 65.24)">Five Stages Toward<tspan x="-10.75" y="74">Data Driven Culture</tspan></text><text class="cls-2" transform="translate(39.54 791.32)">1</text><path class="cls-3" d="M32.49,802A59.59,59.59,0,1,0,92.08,742.4,59.59,59.59,0,0,0,32.49,802Z" transform="translate(-27.26 -34.85)"/><text class="cls-4" transform="translate(194.81 793.8)">2</text><path class="cls-5" d="M304.69,801.42a59.59,59.59,0,1,1-59.59-59.59A59.59,59.59,0,0,1,304.69,801.42Z" transform="translate(-27.26 -34.85)"/><text class="cls-6" transform="translate(501.86 793.35)">4</text><path class="cls-7" d="M613.78,802a59.59,59.59,0,1,1-59.59-59.59A59.59,59.59,0,0,1,613.78,802Z" transform="translate(-27.26 -34.85)"/><text class="cls-8" transform="translate(657.73 793.8)">5</text><path class="cls-9" d="M648.64,801.42a59.59,59.59,0,1,0,59.59-59.59A59.59,59.59,0,0,0,648.64,801.42Z" transform="translate(-27.26 -34.85)"/><text class="cls-10" transform="translate(349.49 793.8)">3</text><path class="cls-11" d="M340.4,801.42A59.59,59.59,0,1,0,400,741.83,59.59,59.59,0,0,0,340.4,801.42Z" transform="translate(-27.26 -34.85)"/><rect class="cls-12" x="0.37" y="414.38" width="128.9" height="251.26"/><rect class="cls-13" x="154.41" y="367.84" width="128.9" height="297.8"/><rect class="cls-14" x="308.44" y="321.29" width="128.9" height="344.34"/><rect class="cls-15" x="462.48" y="274.75" width="128.9" height="390.89"/><rect class="cls-16" x="616.52" y="228.21" width="128.9" height="437.43"/><text class="cls-17" transform="translate(9.55 448.73)">O<tspan class="cls-18" x="13.49" y="0">r</tspan><tspan x="19.86" y="0">ganization </tspan><tspan x="9.5" y="24.5">sta</tspan><tspan class="cls-19" x="36.04" y="24.5">r</tspan><tspan class="cls-20" x="43.1" y="24.5">ts with </tspan><tspan x="16.3" y="49.01">an acti</tspan><tspan class="cls-21" x="73.24" y="49.01">v</tspan><tspan class="cls-20" x="82.6" y="49.01">e </tspan><tspan x="11.05" y="73.52">distrust of </tspan><tspan x="17.36" y="98.02">data and </tspan><tspan x="17.32" y="122.53">does not</tspan><tspan x="28.95" y="147.03">use it.</tspan></text><text class="cls-22" transform="translate(628.79 273.18)">Data pl<tspan class="cls-23" x="59.45" y="0">a</tspan><tspan class="cls-24" x="69.7" y="0">ys a </tspan><tspan x="4.45" y="24.5">cent</tspan><tspan class="cls-25" x="41.63" y="24.5">r</tspan><tspan x="47.86" y="24.5">al </tspan><tspan class="cls-26" x="67.24" y="24.5">r</tspan><tspan x="73.41" y="24.5">ole </tspan><tspan x="5.89" y="49.01">in as many </tspan><tspan x="-1.4" y="73.52">decisions as </tspan><tspan x="15.92" y="98.02">possible </tspan><tspan x="7.4" y="122.53">ac</tspan><tspan class="cls-26" x="27.83" y="122.53">r</tspan><tspan x="34" y="122.53">oss the </tspan><tspan x="-3.82" y="147.03">o</tspan><tspan class="cls-27" x="7.16" y="147.03">r</tspan><tspan class="cls-24" x="13.49" y="147.03">ganization.</tspan></text><text class="cls-17" transform="translate(176.39 416.96)">Company <tspan x="12.48" y="24.5">has no </tspan><tspan x="-1.12" y="49.01">inte</tspan><tspan class="cls-18" x="30.75" y="49.01">r</tspan><tspan x="37.13" y="49.01">est in </tspan><tspan x="6.42" y="73.52">whether </tspan><tspan x="12.66" y="98.02">data is </tspan><tspan x="-8.96" y="122.53">collected or </tspan><tspan x="17.63" y="147.03">used.</tspan></text><text class="cls-17" transform="translate(323.68 358.91)">Business is <tspan x="7.14" y="24.5">collecting </tspan><tspan x="11.48" y="49.01">data and </tspan><tspan x="4.99" y="73.52">m</tspan><tspan class="cls-28" x="22.15" y="73.52">a</tspan><tspan x="32.43" y="73.52">y use it </tspan><tspan x="36.64" y="98.02">for </tspan><tspan x="0.16" y="122.53">moni</tspan><tspan class="cls-29" x="43.68" y="122.53">t</tspan><tspan x="49.56" y="122.53">oring, </tspan><tspan x="3.88" y="147.03">but it does </tspan><tspan x="11.74" y="171.54">not base </tspan><tspan x="7.66" y="196.04">decisions</tspan><tspan x="27.69" y="220.55">on it.</tspan></text><text class="cls-30" transform="translate(483.28 327.42)">Managers <tspan x="6.62" y="24.5">use data </tspan><tspan x="-12.2" y="49.01">selecti</tspan><tspan class="cls-31" x="43.88" y="49.01">v</tspan><tspan x="53.24" y="49.01">ely </tspan><tspan class="cls-29" x="81.99" y="49.01">t</tspan><tspan class="cls-32" x="87.87" y="49.01">o </tspan><tspan x="-7.98" y="73.52">aid decision </tspan><tspan x="8.82" y="98.02">making.</tspan></text><line class="cls-33" x1="64.47" y1="660.74" x2="64.47" y2="706.98"/><line class="cls-34" x1="217.84" y1="660.74" x2="217.84" y2="706.98"/><line class="cls-35" x1="372.73" y1="660.74" x2="372.73" y2="706.98"/><line class="cls-36" x1="526.93" y1="660.74" x2="526.93" y2="706.98"/><line class="cls-37" x1="680.76" y1="660.74" x2="680.76" y2="706.98"/><text class="cls-38" transform="translate(0 396.11)">Data denial</text><text class="cls-39" transform="translate(613.74 212.32)">Data driven</text><text class="cls-40" transform="translate(189.97 326.83)">Data<tspan x="-42.69" y="23.97">indifference</tspan></text><text class="cls-41" transform="translate(306.27 307.02)">Data aware</text><text class="cls-42" transform="translate(499.07 235.77)">Data<tspan x="-25.84" y="23.97">informed</tspan></text><path class="cls-43" d="M405.78,648.45a12.8,12.8,0,0,0-18.09,0,13,13,0,0,0-2.78,4.15,12.8,12.8,0,0,0,2.77,13.94h0a12.73,12.73,0,0,0,9,3.75,12.86,12.86,0,0,0,4.9-1,13,13,0,0,0,4.15-2.77h0a12.82,12.82,0,0,0,2.77-13.94,12.8,12.8,0,0,0-2.77-4.15Zm-9-.17a5,5,0,0,1,3.52,1.45h0a5,5,0,0,1,0,7h0a4.78,4.78,0,0,1-1,.78,7.88,7.88,0,0,1,3,1.86,7.75,7.75,0,0,1,2.28,5.5.55.55,0,0,1-.55.54H389.51a.54.54,0,0,1-.54-.54,7.78,7.78,0,0,1,2.27-5.5,8,8,0,0,1,3-1.86,4.78,4.78,0,0,1-1-.78h0a5,5,0,0,1,3.52-8.5Zm2.75,2.22h0a3.89,3.89,0,0,1,0,5.5h0a3.88,3.88,0,0,1-2.7,1.14h-.07A3.87,3.87,0,0,1,394,656h0a3.89,3.89,0,0,1,5.5-5.51Zm2,9.69a6.64,6.64,0,0,1,1.93,4.18h-13.3a6.66,6.66,0,0,1,6.63-6.13h.05a6.66,6.66,0,0,1,4.69,2Zm11,7.21,9.45,9.45,0,0a3.27,3.27,0,0,1,0,4.59h0l-1.17,1.16a3.27,3.27,0,0,1-2.32,1,3.23,3.23,0,0,1-2.3-1h0l-9.44-9.44a18.58,18.58,0,1,1,5.79-5.8Zm-6,4.65h0a17.47,17.47,0,1,1,3.7-3.3h0l0,0-.39.44h0c-.18.2-.37.39-.56.59h0a17.51,17.51,0,0,1-2.66,2.19Zm14.7,5.57,0,0a2.14,2.14,0,0,1,.61,1.51,2.21,2.21,0,0,1-.63,1.55h0l-1.16,1.17a2.18,2.18,0,0,1-3.09,0h0l-9.29-9.29a18.74,18.74,0,0,0,2.3-2,19.34,19.34,0,0,0,1.95-2.29l9.29,9.29Zm-19.06-33a14.15,14.15,0,0,1,4.51,3,14,14,0,0,1,3,4.51,13.86,13.86,0,0,1-3,15.12h0a13.86,13.86,0,0,1-19.63,0h0a13.68,13.68,0,0,1-3-4.5,13.89,13.89,0,0,1,3-15.13,14,14,0,0,1,4.51-3,13.93,13.93,0,0,1,10.61,0Z" transform="translate(-27.26 -34.85)"/><path class="cls-43" d="M525.52,674.62h57.34a.85.85,0,0,0,.58-.24h0a.84.84,0,0,0,.24-.58v-1.17a.82.82,0,0,0-.82-.82H525.52a.8.8,0,0,0-.57.24l0,0a.79.79,0,0,0-.22.56v1.17a.82.82,0,0,0,.81.82Zm4.28-38.13h48.79a1.89,1.89,0,0,1,1.9,1.9v32.33h2.37a1.91,1.91,0,0,1,1.91,1.91v1.17a1.87,1.87,0,0,1-.56,1.34h0a1.9,1.9,0,0,1-1.35.57H525.52a1.89,1.89,0,0,1-1.34-.57h0a1.87,1.87,0,0,1-.56-1.34v-1.17a1.93,1.93,0,0,1,.52-1.32l0,0a1.87,1.87,0,0,1,1.34-.56h2.37V638.39a1.91,1.91,0,0,1,.56-1.34h0a1.89,1.89,0,0,1,1.35-.56Zm48.79,1.08H529.8a.87.87,0,0,0-.58.24h0a.83.83,0,0,0-.24.58v32.33H579.4V638.39a.86.86,0,0,0-.23-.58.87.87,0,0,0-.58-.24ZM545,673.66a.54.54,0,0,1,0-1.08h18a.54.54,0,0,1,0,1.08Zm-13.82-34.55a.54.54,0,0,0-.54.54v29a.55.55,0,0,0,.54.55h46a.55.55,0,0,0,.55-.55v-29a.55.55,0,0,0-.55-.54Zm45.46,1.09H531.74v27.9h44.91Z" transform="translate(-27.26 -34.85)"/><path class="cls-43" d="M697.91,652.74v0Zm-2.66,18.16,3.32-5.58-.72-.26-.76-.28a.94.94,0,0,0-.64,0h0a1.05,1.05,0,0,0-.46.3l-.37.56-2.3,3.39a1,1,0,0,0,0,.41,1,1,0,0,0,.16.37,1,1,0,0,0,.31.27l1.45.84Zm33.24-32h9.73a.67.67,0,0,1,.66.66v26.59a.67.67,0,0,1-.66.66h-9.73a.67.67,0,0,1-.66-.66V665l-3,2h0a2.24,2.24,0,0,1,.24.7,2.37,2.37,0,0,1-.15,1.28l-.21.49a15.49,15.49,0,0,1-5,6.56L715,679.68a2.27,2.27,0,0,1-1.28.48,2.24,2.24,0,0,1-1.32-.32l-4.32-2.56a2.2,2.2,0,0,1-.51.58h0a2.28,2.28,0,0,1-.81.4,2.18,2.18,0,0,1-.91.07,2.33,2.33,0,0,1-.86-.3h0l-11.84-6.83a2.19,2.19,0,0,1-.71-.64,2.16,2.16,0,0,1-.39-.87,2.35,2.35,0,0,1,0-1,1.91,1.91,0,0,1,.1-.34l-3.48-3.1v.88a.67.67,0,0,1-.67.66h-9.73a.67.67,0,0,1-.66-.66V639.6a.67.67,0,0,1,.66-.66H688a.67.67,0,0,1,.67.66v.54l4.83,1.52a2.32,2.32,0,0,1,1.52,2.9l0,.11,5.73.5h.05l11.11,1.33c.91-.27,1.85-.51,2.86-.73l7-1.57a2.24,2.24,0,0,1,.23-1.49,2.29,2.29,0,0,1,1.35-1.14l4.54-1.43v-.54a.67.67,0,0,1,.66-.66ZM724,666a.4.4,0,0,1,.12-.1l3.51-2.33.16-.08-5.67-18L715,647.05c-1,.23-1.94.47-2.87.74h-.06l-.66.2c-1.15.37-2.28.78-3.48,1.27l-8.52,3.5.35.74a3.28,3.28,0,0,0,1.6,1.6,3.32,3.32,0,0,0,2.25.18l8.19-2.19a.65.65,0,0,1,.67.21L724,666Zm-24.15-.22.49.2c.4.18.79.38,1.18.6s.75.44,1.12.69l-3.56,5.8-2.65-1.52,3.42-5.77Zm.37,8,2.8,1.62,3.2-5.29-2.53-2-3.47,5.66Zm3.93,2.28,1.52.87h0a1,1,0,0,0,.37.13.86.86,0,0,0,.39,0,1,1,0,0,0,.35-.17h0a1,1,0,0,0,.23-.29l1.87-3.28a1,1,0,0,0,.11-.68,1.08,1.08,0,0,0-.36-.59l-1.39-1.08L704.12,676ZM688.94,663.8l3.89,3.47,2-2.89h0a2.33,2.33,0,0,1,1.21-.88h0a2.34,2.34,0,0,1,1.5,0l2.28.85a15.11,15.11,0,0,1,2.29,1.05,15.83,15.83,0,0,1,1.7,1.1h0l.12.08.27.22,5.21,4.09a2.49,2.49,0,0,1,.6.7l7,4.82,1.85-1.44.68-.56-10-7.61a.66.66,0,0,1,.8-1.05l10.14,7.75a15.31,15.31,0,0,0,1.06-1.23c.27-.36.53-.74.77-1.13l-8.9-7.93a.66.66,0,1,1,.88-1L723,670c.16-.33.32-.66.46-1l.21-.49a1,1,0,0,0,.06-.56,1,1,0,0,0-.24-.5l-11.76-13-7.8,2.09a4.65,4.65,0,0,1-3.15-.26,4.73,4.73,0,0,1-2.24-2.24l-.63-1.34,0,0a.65.65,0,0,1,.36-.86l9.16-3.77c.5-.21,1-.4,1.49-.58l-8.33-1h0l-6-.53h0l-5.61,17.84Zm21.29,9.58a2,2,0,0,1-.22.52l-1.26,2.24,4.33,2.56a.94.94,0,0,0,1.12-.07l1.7-1.32-5.67-3.93Zm-21.59-13,5.08-16.19a1,1,0,0,0-.06-.76,1,1,0,0,0-.58-.49l-4.44-1.4v18.84Zm-1.33-20.09h-8.4v25.26h8.4V640.27Zm40.52,19V641.52l-4.14,1.31a1,1,0,0,0-.58.48,1,1,0,0,0-.07.76l4.79,15.24Zm1.32,4.31v1.91h8.41V640.27h-8.41v.34h0Z" transform="translate(-27.26 -34.85)"/><circle class="cls-44" cx="64.47" cy="628.46" r="19.29"/><path class="cls-43" d="M100.05,653.69a.93.93,0,0,1,1.31,0,.92.92,0,0,1,0,1.3L93,663.31l8.32,8.31a.93.93,0,0,1-1.31,1.31l-8.31-8.31-8.32,8.31a.92.92,0,0,1-1.3-1.3l8.31-8.32L82.11,655a.93.93,0,0,1,0-1.3.92.92,0,0,1,1.3,0L91.74,662l8.31-8.32Z" transform="translate(-27.26 -34.85)"/><path class="cls-43" d="M249.71,669.41V647.2h0a.69.69,0,0,0-.21-.49.67.67,0,0,0-.49-.21h-7.82a.71.71,0,0,0-.5.21l0,0a.66.66,0,0,0-.18.48v22.21Zm-23.75,0h3.43V656.27a1.63,1.63,0,0,1,.48-1.16h0a1.68,1.68,0,0,1,1.16-.48h7.82a1.67,1.67,0,0,1,.7.16V647.2a1.62,1.62,0,0,1,.45-1.13l0,0a1.63,1.63,0,0,1,1.16-.48H249a1.63,1.63,0,0,1,.7.16v-7.59a1.6,1.6,0,0,1,.48-1.16,1.63,1.63,0,0,1,1.16-.48h7.82a1.64,1.64,0,0,1,1.64,1.64v31.28h3.42a.47.47,0,0,1,.47.47v4.32a.47.47,0,0,1-.47.47H226a.47.47,0,0,1-.47-.47v-4.32a.47.47,0,0,1,.47-.47Zm37.81.94H226.43v3.38h37.34v-3.38Zm-3.9-.94V638.13a.69.69,0,0,0-.21-.5.67.67,0,0,0-.49-.21h-7.82a.69.69,0,0,0-.5.21.73.73,0,0,0-.2.5v31.28Zm-20.32-13.16a.73.73,0,0,0-.21-.48v0a.75.75,0,0,0-.48-.18H231a.73.73,0,0,0-.5.2h0a.69.69,0,0,0-.21.5v13.14h9.23Z" transform="translate(-27.26 -34.85)"/></svg>